<svg width="1024" height="1024" viewBox="0 0 1024 1024" fill="none" xmlns="http://www.w3.org/2000/svg">
  <defs>
    <linearGradient id="bg" x1="128" y1="96" x2="896" y2="928" gradientUnits="userSpaceOnUse">
      <stop stop-color="#2457FF"/>
      <stop offset="1" stop-color="#1233A8"/>
    </linearGradient>
    <linearGradient id="ring" x1="224" y1="192" x2="800" y2="832" gradientUnits="userSpaceOnUse">
      <stop stop-color="#FFFFFF" stop-opacity="0.96"/>
      <stop offset="1" stop-color="#DCE6FF" stop-opacity="0.92"/>
    </linearGradient>
  </defs>
  <rect x="64" y="64" width="896" height="896" rx="200" fill="url(#bg)"/>
  <rect x="160" y="160" width="704" height="704" rx="156" fill="url(#ring)" fill-opacity="0.12" stroke="#FFFFFF" stroke-opacity="0.2" stroke-width="10"/>
  <path d="M332 318C332 300.327 346.327 286 364 286H462C561.135 286 644 366.865 644 466C644 523.982 614.042 575.938 567 606.42L695 782H604L488 623H414V782H332V318ZM414 556H456C509.019 556 551 519.019 551 466C551 412.981 509.019 376 456 376H414V556Z" fill="#FFFFFF"/>
  <circle cx="742" cy="314" r="34" fill="#8FB1FF"/>
  <circle cx="742" cy="710" r="34" fill="#8FB1FF"/>
  <circle cx="282" cy="702" r="22" fill="#DCE6FF" fill-opacity="0.95"/>
</svg>

